<svg width="19" height="21" viewBox="0 0 19 21" fill="none" xmlns="http://www.w3.org/2000/svg">
<path d="M16.8112 1.96167H2.18896C1.68547 1.96167 1.20259 2.16168 0.846567 2.51771C0.490541 2.87374 0.290527 3.35661 0.290527 3.86011V18.4823C0.290527 18.9858 0.490541 19.4687 0.846567 19.8247C1.20259 20.1807 1.68547 20.3807 2.18896 20.3807H16.8112C17.3147 20.3807 17.7975 20.1807 18.1535 19.8247C18.5096 19.4687 18.7096 18.9858 18.7096 18.4823V3.86011C18.7096 3.35661 18.5096 2.87374 18.1535 2.51771C17.7975 2.16168 17.3147 1.96167 16.8112 1.96167ZM17.444 18.4781C17.444 18.6459 17.3773 18.8069 17.2586 18.9255C17.1399 19.0442 16.979 19.1109 16.8112 19.1109H2.18896C2.02113 19.1109 1.86017 19.0442 1.7415 18.9255C1.62282 18.8069 1.55615 18.6459 1.55615 18.4781V3.86011C1.55615 3.69228 1.62282 3.53132 1.7415 3.41264C1.86017 3.29397 2.02113 3.2273 2.18896 3.2273H16.8112C16.979 3.2273 17.1399 3.29397 17.2586 3.41264C17.3773 3.53132 17.444 3.69228 17.444 3.86011V18.4781Z" fill="#BABABA"/>
<path d="M14.605 1.25244V3.93557C14.605 4.1034 14.5383 4.26436 14.4196 4.38303C14.301 4.50171 14.14 4.56838 13.9722 4.56838C13.8043 4.56838 13.6434 4.50171 13.5247 4.38303C13.406 4.26436 13.3394 4.1034 13.3394 3.93557V1.25244C13.3394 1.08461 13.406 0.923651 13.5247 0.804975C13.6434 0.6863 13.8043 0.619629 13.9722 0.619629C14.14 0.619629 14.301 0.6863 14.4196 0.804975C14.5383 0.923651 14.605 1.08461 14.605 1.25244Z" fill="#BABABA"/>
<path d="M5.66113 1.25244V3.93557C5.66113 4.1034 5.59446 4.26436 5.47579 4.38303C5.35711 4.50171 5.19615 4.56838 5.02832 4.56838C4.86049 4.56838 4.69953 4.50171 4.58085 4.38303C4.46218 4.26436 4.39551 4.1034 4.39551 3.93557V1.25244C4.39551 1.08461 4.46218 0.923651 4.58085 0.804975C4.69953 0.6863 4.86049 0.619629 5.02832 0.619629C5.19615 0.619629 5.35711 0.6863 5.47579 0.804975C5.59446 0.923651 5.66113 1.08461 5.66113 1.25244Z" fill="#BABABA"/>
<path d="M18.7096 6.70312C18.7096 6.87096 18.6429 7.03192 18.5242 7.15059C18.4056 7.26927 18.2446 7.33594 18.0768 7.33594H0.92334C0.755508 7.33594 0.594549 7.26927 0.475874 7.15059C0.357198 7.03192 0.290527 6.87096 0.290527 6.70312C0.290527 6.53529 0.357198 6.37433 0.475874 6.25566C0.594549 6.13698 0.755508 6.07031 0.92334 6.07031H18.0768C18.2446 6.07031 18.4056 6.13698 18.5242 6.25566C18.6429 6.37433 18.7096 6.53529 18.7096 6.70312Z" fill="#BABABA"/>
<path d="M5.91406 10.9219C5.91406 11.047 5.87695 11.1694 5.80741 11.2734C5.73788 11.3775 5.63905 11.4586 5.52342 11.5065C5.40779 11.5544 5.28055 11.5669 5.15779 11.5425C5.03504 11.5181 4.92228 11.4578 4.83378 11.3693C4.74528 11.2808 4.68501 11.1681 4.6606 11.0453C4.63618 10.9226 4.64871 10.7953 4.69661 10.6797C4.7445 10.5641 4.82561 10.4652 4.92968 10.3957C5.03374 10.3262 5.15609 10.2891 5.28125 10.2891C5.44908 10.2891 5.61004 10.3557 5.72872 10.4744C5.84739 10.5931 5.91406 10.754 5.91406 10.9219Z" fill="#BABABA"/>
<path d="M10.1328 10.9219C10.1328 11.047 10.0957 11.1694 10.0262 11.2734C9.95663 11.3775 9.8578 11.4586 9.74217 11.5065C9.62654 11.5544 9.4993 11.5669 9.37654 11.5425C9.25379 11.5181 9.14103 11.4578 9.05253 11.3693C8.96403 11.2808 8.90376 11.1681 8.87935 11.0453C8.85493 10.9226 8.86746 10.7953 8.91536 10.6797C8.96325 10.5641 9.04436 10.4652 9.14843 10.3957C9.25249 10.3262 9.37484 10.2891 9.5 10.2891C9.66783 10.2891 9.82879 10.3557 9.94747 10.4744C10.0661 10.5931 10.1328 10.754 10.1328 10.9219Z" fill="#BABABA"/>
<path d="M13.0859 10.9219C13.0859 10.7967 13.1231 10.6744 13.1926 10.5703C13.2621 10.4662 13.361 10.3851 13.4766 10.3372C13.5922 10.2893 13.7195 10.2768 13.8422 10.3012C13.965 10.3256 14.0777 10.3859 14.1662 10.4744C14.2547 10.5629 14.315 10.6757 14.3394 10.7984C14.3638 10.9212 14.3513 11.0484 14.3034 11.164C14.2555 11.2797 14.1744 11.3785 14.0703 11.448C13.9663 11.5176 13.8439 11.5547 13.7188 11.5547C13.5509 11.5547 13.39 11.488 13.2713 11.3693C13.1526 11.2507 13.0859 11.0897 13.0859 10.9219Z" fill="#BABABA"/>
<path d="M5.91406 15.1406C5.91406 15.2658 5.87695 15.3881 5.80741 15.4922C5.73788 15.5963 5.63905 15.6774 5.52342 15.7253C5.40779 15.7732 5.28055 15.7857 5.15779 15.7613C5.03504 15.7369 4.92228 15.6766 4.83378 15.5881C4.74528 15.4996 4.68501 15.3868 4.6606 15.2641C4.63618 15.1413 4.64871 15.0141 4.69661 14.8985C4.7445 14.7828 4.82561 14.684 4.92968 14.6145C5.03374 14.5449 5.15609 14.5078 5.28125 14.5078C5.44908 14.5078 5.61004 14.5745 5.72872 14.6932C5.84739 14.8118 5.91406 14.9728 5.91406 15.1406Z" fill="#BABABA"/>
<path d="M10.1328 15.1406C10.1328 15.2658 10.0957 15.3881 10.0262 15.4922C9.95663 15.5963 9.8578 15.6774 9.74217 15.7253C9.62654 15.7732 9.4993 15.7857 9.37654 15.7613C9.25379 15.7369 9.14103 15.6766 9.05253 15.5881C8.96403 15.4996 8.90376 15.3868 8.87935 15.2641C8.85493 15.1413 8.86746 15.0141 8.91536 14.8985C8.96325 14.7828 9.04436 14.684 9.14843 14.6145C9.25249 14.5449 9.37484 14.5078 9.5 14.5078C9.66783 14.5078 9.82879 14.5745 9.94747 14.6932C10.0661 14.8118 10.1328 14.9728 10.1328 15.1406Z" fill="#BABABA"/>
<path d="M14.3516 15.1406C14.3516 15.2658 14.3144 15.3881 14.2449 15.4922C14.1754 15.5963 14.0765 15.6774 13.9609 15.7253C13.8453 15.7732 13.718 15.7857 13.5953 15.7613C13.4725 15.7369 13.3598 15.6766 13.2713 15.5881C13.1828 15.4996 13.1225 15.3868 13.0981 15.2641C13.0737 15.1413 13.0862 15.0141 13.1341 14.8985C13.182 14.7828 13.2631 14.684 13.3672 14.6145C13.4712 14.5449 13.5936 14.5078 13.7187 14.5078C13.8866 14.5078 14.0475 14.5745 14.1662 14.6932C14.2849 14.8118 14.3516 14.9728 14.3516 15.1406Z" fill="#BABABA"/>
</svg>
