<svg width="55" height="55" viewBox="0 0 55 55" fill="none" xmlns="http://www.w3.org/2000/svg">
<path d="M0.68457 27.5123C0.685723 12.6672 12.5359 0.536208 27.3994 0.608229C43.2159 0.68486 54.5059 13.6651 54.3126 27.8574C54.1182 42.1361 42.873 54.2821 27.3746 54.3919C12.488 54.497 0.683706 42.4412 0.68457 27.5123Z" fill="#0052FF"/>
<path d="M19.1311 10.9521C24.0162 8.30176 30.127 8.08973 35.2074 10.3161C40.6269 12.6314 44.6895 17.6525 46.021 23.373C43.0866 23.3816 40.1478 23.479 37.2174 23.318C35.4788 18.4539 29.4656 15.8712 24.6523 17.5548C20.3906 18.878 17.1845 23.2246 17.5195 27.7326C17.4645 33.029 22.2395 37.7447 27.515 37.732C31.7343 37.9737 35.7925 35.2047 37.3871 31.3455C40.2665 31.3244 43.1416 31.3158 46.021 31.3498C44.9695 35.9128 42.2511 40.1577 38.3029 42.7361C33.8759 45.8699 28.0321 46.7137 22.8373 45.3058C17.9223 43.936 13.5926 40.4968 11.2986 35.9211C8.90259 31.3414 8.54623 25.748 10.4038 20.9176C11.9474 16.6686 15.1362 13.0598 19.1311 10.9521Z" fill="white"/>
</svg>
