<svg width="166" height="45" viewBox="0 0 166 45" fill="none" xmlns="http://www.w3.org/2000/svg">
<g clip-path="url(#clip0_345_4586)">
<path d="M35.6351 9.27784C32.9789 8.03505 30.1387 7.13185 27.1694 6.61755C26.8047 7.27686 26.3787 8.16364 26.085 8.86907C22.9285 8.39438 19.801 8.39438 16.7026 8.86907C16.4089 8.16364 15.9732 7.27686 15.6053 6.61755C12.6328 7.13185 9.78933 8.03837 7.13309 9.28442C1.77544 17.3805 0.323067 25.2756 1.04925 33.0585C4.60273 35.7121 8.04648 37.3241 11.4321 38.379C12.268 37.2285 13.0136 36.0055 13.6558 34.7166C12.4326 34.2518 11.2611 33.6782 10.1541 33.0124C10.4477 32.7948 10.735 32.5673 11.0125 32.3333C17.7645 35.4913 25.1006 35.4913 31.7718 32.3333C32.0526 32.5673 32.3398 32.7948 32.6303 33.0124C31.5201 33.6815 30.3453 34.2551 29.1221 34.7199C29.7643 36.0055 30.5067 37.2318 31.3458 38.3823C34.7347 37.3274 38.1816 35.7155 41.7351 33.0585C42.5872 24.0361 40.2795 16.2136 35.6351 9.27784ZM14.5757 28.2721C12.5488 28.2721 10.8867 26.3799 10.8867 24.0756C10.8867 21.7714 12.5134 19.876 14.5757 19.876C16.6381 19.876 18.3002 21.7681 18.2647 24.0756C18.268 26.3799 16.6381 28.2721 14.5757 28.2721ZM28.2087 28.2721C26.1818 28.2721 24.5196 26.3799 24.5196 24.0756C24.5196 21.7714 26.1463 19.876 28.2087 19.876C30.271 19.876 31.9332 21.7681 31.8977 24.0756C31.8977 26.3799 30.271 28.2721 28.2087 28.2721Z" fill="#5865F2"/>
<path d="M56.0166 14.7209H64.8274C66.9514 14.7209 68.7458 15.0605 70.2179 15.7363C71.686 16.412 72.7868 17.3548 73.5164 18.5613C74.2454 19.7678 74.6132 21.149 74.6132 22.705C74.6132 24.2279 74.2324 25.6091 73.4708 26.8453C72.7092 28.0848 71.5504 29.0639 69.9917 29.7858C68.4331 30.5077 66.5026 30.8703 64.1952 30.8703H56.0166V14.7209ZM64.1046 26.7662C65.5345 26.7662 66.6353 26.4003 67.4031 25.6718C68.1715 24.9399 68.5557 23.9444 68.5557 22.6819C68.5557 21.5116 68.2131 20.5787 67.5291 19.8799C66.8451 19.181 65.809 18.8283 64.4241 18.8283H61.6679V26.7662H64.1046Z" fill="#5865F2"/>
<path d="M87.8044 30.8507C86.5843 30.5276 85.4835 30.0595 84.5059 29.4431V25.6126C85.245 26.196 86.2355 26.6774 87.4781 27.0564C88.7207 27.4322 89.9216 27.6201 91.0832 27.6201C91.6254 27.6201 92.0355 27.5476 92.3128 27.4025C92.5907 27.2575 92.7296 27.0828 92.7296 26.8817C92.7296 26.651 92.6554 26.4598 92.5035 26.3048C92.3516 26.1499 92.058 26.0213 91.6226 25.9125L88.9114 25.2895C87.3589 24.9203 86.258 24.4094 85.6033 23.7534C84.948 23.1007 84.6217 22.2436 84.6217 21.1821C84.6217 20.2888 84.9058 19.5142 85.4807 18.8515C86.0516 18.189 86.865 17.678 87.9202 17.3187C88.976 16.9561 90.2085 16.7748 91.6254 16.7748C92.8905 16.7748 94.0492 16.9132 95.105 17.1901C96.1603 17.467 97.0316 17.8197 97.7257 18.2516V21.8744C97.0153 21.4426 96.2019 21.103 95.2727 20.8459C94.3462 20.5921 93.3945 20.4668 92.4129 20.4668C90.996 20.4668 90.2895 20.714 90.2895 21.2052C90.2895 21.436 90.3992 21.6074 90.6185 21.7228C90.8379 21.8381 91.2412 21.9568 91.8257 22.0821L94.0847 22.4974C95.5601 22.7579 96.6604 23.2161 97.3832 23.8687C98.1066 24.5215 98.4677 25.4873 98.4677 26.7664C98.4677 28.1673 97.8709 29.2783 96.6733 30.1024C95.4757 30.9265 93.7781 31.3385 91.577 31.3385C90.2827 31.3353 89.0244 31.1737 87.8044 30.8507Z" fill="#5865F2"/>
<path d="M103.8 30.3659C102.507 29.7197 101.528 28.8429 100.877 27.7353C100.225 26.6277 99.8955 25.3816 99.8955 23.9971C99.8955 22.6126 100.234 21.3731 100.912 20.282C101.59 19.1908 102.584 18.3338 103.894 17.7107C105.204 17.0877 106.77 16.7778 108.593 16.7778C110.852 16.7778 112.728 17.2624 114.219 18.2316V22.4544C113.693 22.0851 113.079 21.7852 112.379 21.5544C111.679 21.3237 110.93 21.2083 110.13 21.2083C108.729 21.2083 107.635 21.4687 106.844 21.9928C106.053 22.517 105.657 23.1993 105.657 24.0465C105.657 24.8772 106.04 25.5563 106.809 26.0904C107.577 26.6211 108.69 26.8881 110.152 26.8881C110.904 26.8881 111.647 26.776 112.379 26.5552C113.109 26.331 113.738 26.0574 114.264 25.7343V29.8186C112.609 30.8339 110.688 31.3416 108.503 31.3416C106.664 31.335 105.095 31.0119 103.8 30.3659Z" fill="#5865F2"/>
<path d="M119.854 30.366C118.55 29.7199 117.556 28.8364 116.872 27.7123C116.188 26.5882 115.842 25.3356 115.842 23.9511C115.842 22.5666 116.184 21.3304 116.872 20.2459C117.559 19.1613 118.547 18.3108 119.844 17.6944C121.138 17.0779 122.685 16.7714 124.476 16.7714C126.267 16.7714 127.813 17.0779 129.107 17.6944C130.401 18.3108 131.389 19.1547 132.067 20.2326C132.745 21.3106 133.083 22.5468 133.083 23.9478C133.083 25.3323 132.745 26.585 132.067 27.709C131.389 28.8331 130.398 29.7166 129.094 30.3627C127.79 31.0088 126.251 31.3318 124.473 31.3318C122.694 31.3318 121.155 31.0121 119.854 30.366ZM126.719 26.2718C127.268 25.7114 127.545 24.9697 127.545 24.0467C127.545 23.1237 127.271 22.3885 126.719 21.8446C126.17 21.2974 125.421 21.0238 124.473 21.0238C123.507 21.0238 122.752 21.2974 122.2 21.8446C121.652 22.3919 121.377 23.1237 121.377 24.0467C121.377 24.9697 121.652 25.7114 122.2 26.2718C122.749 26.8322 123.507 27.1157 124.473 27.1157C125.421 27.1124 126.17 26.8322 126.719 26.2718Z" fill="#5865F2"/>
<path d="M146.658 17.6285V22.6127C146.084 22.227 145.341 22.0358 144.421 22.0358C143.217 22.0358 142.288 22.4084 141.642 23.1534C140.994 23.8984 140.671 25.0587 140.671 26.6278V30.8737H135.136V17.3747H140.558V21.6667C140.858 20.0975 141.346 18.9405 142.017 18.1922C142.685 17.4472 143.55 17.0747 144.602 17.0747C145.399 17.0747 146.084 17.2593 146.658 17.6285Z" fill="#5865F2"/>
<path d="M165.048 14.2595V30.8737H159.513V27.8509C159.045 28.9881 158.335 29.8551 157.38 30.4484C156.424 31.0386 155.243 31.3352 153.842 31.3352C152.59 31.3352 151.499 31.0253 150.566 30.4023C149.634 29.7793 148.914 28.9255 148.407 27.841C147.904 26.7564 147.649 25.5302 147.649 24.1588C147.633 22.7447 147.901 21.4755 148.452 20.3514C149.001 19.2273 149.779 18.3505 150.779 17.7208C151.78 17.0912 152.923 16.7747 154.204 16.7747C156.841 16.7747 158.609 17.945 159.513 20.2822V14.2595H165.048ZM158.687 26.1796C159.252 25.6192 159.533 24.8907 159.533 24.0006C159.533 23.1402 159.258 22.438 158.71 21.9007C158.161 21.3634 157.409 21.0931 156.463 21.0931C155.53 21.0931 154.785 21.3667 154.226 21.9139C153.668 22.4612 153.391 23.1699 153.391 24.0467C153.391 24.9236 153.668 25.639 154.226 26.1927C154.785 26.7465 155.521 27.0234 156.44 27.0234C157.373 27.0202 158.122 26.7399 158.687 26.1796Z" fill="#5865F2"/>
<path d="M79.2772 18.8118C80.801 18.8118 82.0368 17.6783 82.0368 16.2801C82.0368 14.8819 80.801 13.7484 79.2772 13.7484C77.7528 13.7484 76.5176 14.8819 76.5176 16.2801C76.5176 17.6783 77.7528 18.8118 79.2772 18.8118Z" fill="#5865F2"/>
<path d="M76.5156 20.5557C78.2065 21.3006 80.3046 21.3336 82.0343 20.5557V30.9461H76.5156V20.5557Z" fill="#5865F2"/>
</g>
<defs>
<clipPath id="clip0_345_4586">
<rect width="164.25" height="45" fill="white" transform="translate(0.875)"/>
</clipPath>
</defs>
</svg>
