<svg width="160" height="30" viewBox="0 0 160 30" fill="none" xmlns="http://www.w3.org/2000/svg">
<path d="M13.9844 27.4376C14.179 26.9367 14.2717 26.4021 14.2573 25.865C14.2869 24.3764 14.6848 22.9184 15.4153 21.621C16.144 20.3258 17.1831 19.2321 18.4393 18.438C18.9044 18.1885 19.314 17.8473 19.6435 17.4349C19.9729 17.0225 20.2153 16.5476 20.3559 16.0389C20.4965 15.5301 20.5324 14.9982 20.4615 14.4751C20.3905 13.9521 20.2143 13.4489 19.9433 12.996C19.5813 12.391 19.0603 11.895 18.4393 11.565C18.0833 11.318 17.7413 11.052 17.4153 10.767L16.5983 9.967C15.1012 8.3932 14.2617 6.30708 14.2513 4.135C14.2667 3.59777 14.1744 3.06288 13.9798 2.56188C13.7853 2.06089 13.4923 1.60395 13.1183 1.218C12.7459 0.832488 12.2997 0.52595 11.8062 0.316684C11.3128 0.107418 10.7822 -0.000286365 10.2463 5.71818e-07C9.71058 0.000756001 9.1805 0.108938 8.68737 0.318146C8.19423 0.527354 7.74807 0.833339 7.37526 1.218C7.00188 1.60462 6.70937 2.06183 6.51482 2.56287C6.32028 3.06391 6.22762 3.59872 6.24226 4.136C6.251 4.83344 6.4431 5.5163 6.79926 6.116C7.1542 6.71469 7.66095 7.20902 8.26826 7.549C10.7273 9.105 12.4383 12.08 12.4383 15.006C12.4322 17.1592 11.6087 19.2298 10.1343 20.799L8.27426 22.451C7.66726 22.79 7.16026 23.284 6.80426 23.884C6.44726 24.483 6.25626 25.167 6.24726 25.865C6.23197 26.4022 6.32433 26.9371 6.51891 27.438C6.71349 27.939 7.00636 28.396 7.38026 28.782C7.7527 29.1674 8.19893 29.4739 8.69236 29.6832C9.18578 29.8924 9.7163 30.0002 10.2523 30C10.7881 29.9994 11.3184 29.8913 11.8117 29.682C12.305 29.4728 12.7513 29.1668 13.1243 28.782C13.4975 28.3955 13.7899 27.9384 13.9844 27.4376Z" fill="#4F46E5"/>
<path d="M19.4163 6.36C18.9753 5.698 18.7403 4.919 18.7403 4.123C18.7409 3.05673 19.1633 2.034 19.9153 1.278C20.5691 0.62024 21.4314 0.210504 22.3543 0.119089C23.2772 0.0276751 24.2031 0.260281 24.9733 0.777001C25.6329 1.2199 26.1466 1.84836 26.4493 2.583C26.752 3.31848 26.831 4.12692 26.6764 4.9071C26.5219 5.68728 26.1406 6.40452 25.5803 6.969C25.0217 7.53193 24.308 7.91563 23.5304 8.07112C22.7527 8.22661 21.9464 8.14685 21.2143 7.842C20.4815 7.53685 19.8557 7.02107 19.4163 6.36Z" fill="#4F46E5"/>
<path d="M20.5213 22.518C21.1803 22.076 21.9553 21.84 22.7473 21.84V21.838C23.2737 21.8386 23.7949 21.9432 24.2809 22.1457C24.7669 22.3482 25.2081 22.6446 25.5793 23.018C26.2352 23.6779 26.6432 24.544 26.7343 25.47C26.8254 26.3959 26.594 27.3249 26.0793 28.1C25.6399 28.762 25.0137 29.2785 24.2803 29.584C23.5482 29.8888 22.7418 29.9686 21.9642 29.8131C21.1865 29.6576 20.4729 29.2739 19.9143 28.711C19.3538 28.1464 18.9723 27.429 18.8177 26.6486C18.6632 25.8683 18.7423 25.0596 19.0453 24.324C19.348 23.5894 19.8616 22.9609 20.5213 22.518Z" fill="#4F46E5"/>
<path d="M32.3243 12.758C32.7641 13.4198 32.9991 14.1974 32.9993 14.9931C32.9986 16.0597 32.5762 17.0827 31.8243 17.839C31.453 18.2122 31.0118 18.5086 30.5258 18.7111C30.0398 18.9136 29.5187 19.0182 28.9923 19.019C28.1994 19.019 27.4245 18.783 26.7663 18.341C26.1066 17.8981 25.593 17.2696 25.2903 16.535C24.9873 15.7994 24.9082 14.9907 25.0627 14.2104C25.2173 13.43 25.5988 12.7126 26.1593 12.148C26.7179 11.5849 27.4318 11.2011 28.2096 11.0456C28.9875 10.8901 29.794 10.9699 30.5263 11.275C31.2592 11.5804 31.885 12.0966 32.3243 12.758Z" fill="#4F46E5"/>
<path d="M1.78026 11.647C2.43926 11.205 3.21326 10.969 4.00626 10.969C4.53261 10.9701 5.05357 11.075 5.53934 11.2776C6.02511 11.4803 6.46617 11.7767 6.83726 12.15C7.49287 12.8097 7.90068 13.6754 7.99178 14.601C8.08288 15.5265 7.85169 16.4552 7.33726 17.23C6.89793 17.8914 6.27217 18.4075 5.53926 18.713C4.8069 19.0164 4.00093 19.0953 3.22361 18.9399C2.44629 18.7845 1.73266 18.4017 1.17326 17.84C0.612965 17.2755 0.231653 16.5583 0.0770756 15.7781C-0.0775017 14.9979 0.00152573 14.1895 0.304262 13.454C0.606855 12.719 1.12048 12.0902 1.78026 11.647Z" fill="#4F46E5"/>
<path d="M60.7706 22H57.4751L62.4964 7.45455H66.4595L71.4737 22H68.1782L64.5348 10.7784H64.4211L60.7706 22ZM60.5646 16.2827H68.3487V18.6832H60.5646V16.2827ZM76.1932 7.45455V22H73.1676V7.45455H76.1932ZM78.6168 26.0909V11.0909H81.5998V12.9233H81.7347C81.8673 12.6297 82.059 12.3314 82.31 12.0284C82.5657 11.7206 82.8971 11.465 83.3043 11.2614C83.7162 11.053 84.2276 10.9489 84.8384 10.9489C85.6339 10.9489 86.3678 11.1572 87.0401 11.5739C87.7125 11.9858 88.2499 12.6084 88.6523 13.4418C89.0548 14.2704 89.256 15.3097 89.256 16.5597C89.256 17.7765 89.0595 18.804 88.6665 19.642C88.2783 20.4754 87.748 21.1075 87.0756 21.5384C86.408 21.9645 85.6599 22.1776 84.8313 22.1776C84.2442 22.1776 83.7447 22.0805 83.3327 21.8864C82.9255 21.6922 82.5917 21.4484 82.3313 21.1548C82.0709 20.8565 81.872 20.5559 81.7347 20.2528H81.6424V26.0909H78.6168ZM81.5785 16.5455C81.5785 17.1941 81.6684 17.7599 81.8483 18.2429C82.0283 18.7259 82.2887 19.1023 82.6296 19.3722C82.9705 19.6373 83.3848 19.7699 83.8725 19.7699C84.3649 19.7699 84.7816 19.6349 85.1225 19.3651C85.4634 19.0904 85.7215 18.7116 85.8966 18.2287C86.0766 17.741 86.1665 17.1799 86.1665 16.5455C86.1665 15.9157 86.0789 15.3617 85.9037 14.8835C85.7286 14.4053 85.4705 14.0312 85.1296 13.7614C84.7887 13.4915 84.3697 13.3565 83.8725 13.3565C83.3801 13.3565 82.9634 13.4867 82.6225 13.7472C82.2863 14.0076 82.0283 14.3769 81.8483 14.8551C81.6684 15.3333 81.5785 15.8968 81.5785 16.5455ZM94.2986 15.6932V22H91.2731V7.45455H94.2134V13.0156H94.3412C94.5875 12.3717 94.9852 11.8674 95.5344 11.5028C96.0837 11.1335 96.7726 10.9489 97.6012 10.9489C98.3588 10.9489 99.0193 11.1146 99.5827 11.446C100.151 11.7727 100.591 12.2438 100.904 12.8594C101.221 13.4702 101.377 14.2017 101.372 15.054V22H98.3469V15.5938C98.3517 14.9214 98.1812 14.3982 97.8356 14.0241C97.4947 13.6501 97.0164 13.4631 96.4009 13.4631C95.989 13.4631 95.6244 13.5507 95.3072 13.7259C94.9947 13.901 94.7484 14.1567 94.5685 14.4929C94.3933 14.8243 94.3034 15.2244 94.2986 15.6932ZM106.864 22.206C106.168 22.206 105.548 22.0852 105.004 21.8438C104.459 21.5975 104.028 21.2353 103.711 20.7571C103.398 20.2741 103.242 19.6728 103.242 18.9531C103.242 18.3471 103.353 17.8381 103.576 17.4261C103.799 17.0142 104.102 16.6828 104.485 16.4318C104.869 16.1809 105.304 15.9915 105.792 15.8636C106.284 15.7358 106.8 15.6458 107.34 15.5938C107.975 15.5275 108.486 15.4659 108.874 15.4091C109.263 15.3475 109.544 15.2576 109.719 15.1392C109.895 15.0208 109.982 14.8456 109.982 14.6136V14.571C109.982 14.1212 109.84 13.7732 109.556 13.527C109.277 13.2808 108.879 13.1577 108.363 13.1577C107.818 13.1577 107.385 13.2784 107.063 13.5199C106.741 13.7566 106.528 14.0549 106.424 14.4148L103.626 14.1875C103.768 13.5246 104.047 12.9517 104.464 12.4688C104.88 11.9811 105.418 11.607 106.076 11.3466C106.739 11.0814 107.506 10.9489 108.377 10.9489C108.983 10.9489 109.563 11.0199 110.117 11.1619C110.676 11.304 111.171 11.5241 111.602 11.8224C112.037 12.1207 112.38 12.5043 112.631 12.973C112.882 13.437 113.008 13.9934 113.008 14.642V22H110.138V20.4872H110.053C109.878 20.8281 109.644 21.1288 109.35 21.3892C109.057 21.6449 108.704 21.8461 108.292 21.9929C107.88 22.1349 107.404 22.206 106.864 22.206ZM107.731 20.1179C108.176 20.1179 108.569 20.0303 108.91 19.8551C109.251 19.6752 109.518 19.4337 109.712 19.1307C109.906 18.8277 110.004 18.4844 110.004 18.1009V16.9432C109.909 17.0047 109.779 17.0616 109.613 17.1136C109.452 17.161 109.27 17.206 109.066 17.2486C108.862 17.2865 108.659 17.322 108.455 17.3551C108.252 17.3835 108.067 17.4096 107.901 17.4332C107.546 17.4853 107.236 17.5682 106.971 17.6818C106.706 17.7955 106.5 17.9493 106.353 18.1435C106.206 18.3329 106.133 18.5696 106.133 18.8537C106.133 19.2656 106.282 19.5805 106.58 19.7983C106.883 20.0114 107.267 20.1179 107.731 20.1179ZM123.303 11.6378C123.246 11.0649 123.002 10.6198 122.571 10.3026C122.14 9.98532 121.555 9.8267 120.817 9.8267C120.315 9.8267 119.891 9.89773 119.545 10.0398C119.2 10.1771 118.935 10.3688 118.75 10.6151C118.57 10.8613 118.48 11.1406 118.48 11.4531C118.471 11.7135 118.525 11.9408 118.643 12.1349C118.767 12.3291 118.935 12.4972 119.148 12.6392C119.361 12.7765 119.607 12.8973 119.886 13.0014C120.166 13.1009 120.464 13.1861 120.781 13.2571L122.088 13.5696C122.723 13.7116 123.305 13.901 123.835 14.1378C124.366 14.3745 124.825 14.6657 125.213 15.0114C125.601 15.357 125.902 15.7642 126.115 16.233C126.333 16.7017 126.444 17.2391 126.449 17.8452C126.444 18.7353 126.217 19.5071 125.767 20.1605C125.322 20.8092 124.678 21.3134 123.835 21.6733C122.997 22.0284 121.986 22.206 120.803 22.206C119.628 22.206 118.606 22.026 117.734 21.6662C116.868 21.3063 116.191 20.7737 115.703 20.0682C115.22 19.358 114.967 18.4796 114.943 17.4332H117.919C117.952 17.9209 118.092 18.3281 118.338 18.6548C118.589 18.9768 118.923 19.2206 119.339 19.3864C119.761 19.5473 120.237 19.6278 120.767 19.6278C121.288 19.6278 121.74 19.5521 122.124 19.4006C122.512 19.2491 122.812 19.0384 123.026 18.7685C123.239 18.4986 123.345 18.1884 123.345 17.8381C123.345 17.5114 123.248 17.2367 123.054 17.0142C122.865 16.7917 122.585 16.6023 122.216 16.446C121.851 16.2898 121.404 16.1477 120.874 16.0199L119.29 15.6222C118.063 15.3239 117.095 14.8575 116.385 14.223C115.675 13.5885 115.322 12.7339 115.327 11.6591C115.322 10.7784 115.556 10.009 116.03 9.35085C116.508 8.69271 117.164 8.17898 117.997 7.80966C118.83 7.44034 119.777 7.25568 120.838 7.25568C121.918 7.25568 122.86 7.44034 123.665 7.80966C124.474 8.17898 125.104 8.69271 125.554 9.35085C126.004 10.009 126.236 10.7713 126.25 11.6378H123.303ZM128.461 26.0909V11.0909H131.444V12.9233H131.578C131.711 12.6297 131.903 12.3314 132.154 12.0284C132.409 11.7206 132.741 11.465 133.148 11.2614C133.56 11.053 134.071 10.9489 134.682 10.9489C135.478 10.9489 136.212 11.1572 136.884 11.5739C137.556 11.9858 138.094 12.6084 138.496 13.4418C138.899 14.2704 139.1 15.3097 139.1 16.5597C139.1 17.7765 138.903 18.804 138.51 19.642C138.122 20.4754 137.592 21.1075 136.919 21.5384C136.252 21.9645 135.504 22.1776 134.675 22.1776C134.088 22.1776 133.588 22.0805 133.176 21.8864C132.769 21.6922 132.435 21.4484 132.175 21.1548C131.915 20.8565 131.716 20.5559 131.578 20.2528H131.486V26.0909H128.461ZM131.422 16.5455C131.422 17.1941 131.512 17.7599 131.692 18.2429C131.872 18.7259 132.132 19.1023 132.473 19.3722C132.814 19.6373 133.229 19.7699 133.716 19.7699C134.209 19.7699 134.625 19.6349 134.966 19.3651C135.307 19.0904 135.565 18.7116 135.74 18.2287C135.92 17.741 136.01 17.1799 136.01 16.5455C136.01 15.9157 135.923 15.3617 135.747 14.8835C135.572 14.4053 135.314 14.0312 134.973 13.7614C134.632 13.4915 134.213 13.3565 133.716 13.3565C133.224 13.3565 132.807 13.4867 132.466 13.7472C132.13 14.0076 131.872 14.3769 131.692 14.8551C131.512 15.3333 131.422 15.8968 131.422 16.5455ZM146.046 22.2131C144.943 22.2131 143.988 21.9787 143.184 21.5099C142.383 21.0365 141.765 20.3783 141.33 19.5355C140.894 18.688 140.676 17.7055 140.676 16.5881C140.676 15.4612 140.894 14.4763 141.33 13.6335C141.765 12.786 142.383 12.1278 143.184 11.6591C143.988 11.1856 144.943 10.9489 146.046 10.9489C147.149 10.9489 148.101 11.1856 148.901 11.6591C149.706 12.1278 150.326 12.786 150.762 13.6335C151.197 14.4763 151.415 15.4612 151.415 16.5881C151.415 17.7055 151.197 18.688 150.762 19.5355C150.326 20.3783 149.706 21.0365 148.901 21.5099C148.101 21.9787 147.149 22.2131 146.046 22.2131ZM146.06 19.8693C146.562 19.8693 146.981 19.7273 147.317 19.4432C147.653 19.1544 147.907 18.7614 148.077 18.2642C148.252 17.767 148.34 17.2012 148.34 16.5668C148.34 15.9323 148.252 15.3665 148.077 14.8693C147.907 14.3722 147.653 13.9792 147.317 13.6903C146.981 13.4015 146.562 13.2571 146.06 13.2571C145.553 13.2571 145.127 13.4015 144.782 13.6903C144.441 13.9792 144.183 14.3722 144.007 14.8693C143.837 15.3665 143.752 15.9323 143.752 16.5668C143.752 17.2012 143.837 17.767 144.007 18.2642C144.183 18.7614 144.441 19.1544 144.782 19.4432C145.127 19.7273 145.553 19.8693 146.06 19.8693ZM159.185 11.0909V13.3636H152.615V11.0909H159.185ZM154.107 8.47727H157.132V18.6477C157.132 18.9271 157.175 19.1449 157.26 19.3011C157.346 19.4527 157.464 19.5592 157.615 19.6207C157.772 19.6823 157.952 19.7131 158.155 19.7131C158.297 19.7131 158.439 19.7012 158.581 19.6776C158.723 19.6491 158.832 19.6278 158.908 19.6136L159.384 21.8651C159.232 21.9124 159.019 21.9669 158.745 22.0284C158.47 22.0947 158.136 22.1349 157.743 22.1491C157.014 22.1776 156.375 22.0805 155.826 21.858C155.281 21.6354 154.857 21.2898 154.554 20.821C154.251 20.3523 154.102 19.7604 154.107 19.0455V8.47727Z" fill="black"/>
</svg>
