<svg width="25" height="25" viewBox="0 0 25 25" fill="none" xmlns="http://www.w3.org/2000/svg">
<path fill-rule="evenodd" clip-rule="evenodd" d="M5.33051 6.78949C5.33051 6.2372 5.77822 5.78949 6.33051 5.78949H18.3305C18.8828 5.78949 19.3305 6.2372 19.3305 6.78949C19.3305 7.34177 18.8828 7.78949 18.3305 7.78949H6.33051C5.77822 7.78949 5.33051 7.34177 5.33051 6.78949ZM5.33051 18.7895C5.33051 18.2372 5.77822 17.7895 6.33051 17.7895H18.3305C18.8828 17.7895 19.3305 18.2372 19.3305 18.7895C19.3305 19.3418 18.8828 19.7895 18.3305 19.7895H6.33051C5.77822 19.7895 5.33051 19.3418 5.33051 18.7895ZM3.33051 11.7895C2.77822 11.7895 2.33051 12.2372 2.33051 12.7895C2.33051 13.3418 2.77822 13.7895 3.33051 13.7895H21.3305C21.8828 13.7895 22.3305 13.3418 22.3305 12.7895C22.3305 12.2372 21.8828 11.7895 21.3305 11.7895H3.33051Z" fill="#2858A6"/>
</svg>
