<svg width="17" height="20" viewBox="0 0 17 20" fill="none" xmlns="http://www.w3.org/2000/svg">
<path fill-rule="evenodd" clip-rule="evenodd" d="M6.71911 7.50256V6.75937C6.46118 6.72284 6.20107 6.70388 5.94057 6.70264C2.75486 6.70264 0.163086 9.29485 0.163086 12.4806C0.163086 14.4348 1.13975 16.1646 2.62961 17.2107C1.63202 16.1438 1.07741 14.7376 1.07821 13.277C1.07821 10.1367 3.59624 7.57587 6.71911 7.50256Z" fill="#00F2EA"/>
<path fill-rule="evenodd" clip-rule="evenodd" d="M6.85559 15.9155C8.27694 15.9155 9.43645 14.7848 9.48926 13.3756L9.49406 0.796428H11.7921C11.7431 0.533783 11.7182 0.267188 11.7179 0H8.57936L8.57413 12.5796C8.52176 13.9883 7.36181 15.1186 5.9409 15.1186C5.5143 15.1188 5.0941 15.0148 4.7168 14.8157C4.96043 15.1556 5.28147 15.4327 5.65339 15.6239C6.0253 15.8151 6.43739 15.9151 6.85559 15.9155ZM16.085 5.06616V4.36704C15.2404 4.36783 14.414 4.12213 13.7071 3.66008C14.3269 4.37372 15.1614 4.86709 16.0854 5.06616" fill="#00F2EA"/>
<path fill-rule="evenodd" clip-rule="evenodd" d="M13.7069 3.65965C13.014 2.86692 12.6324 1.8497 12.6329 0.796875H11.792C11.9008 1.37879 12.1267 1.93255 12.4558 2.42463C12.785 2.91671 13.2106 3.33686 13.7069 3.65965ZM5.94071 9.84168C5.2412 9.84249 4.57056 10.1207 4.07593 10.6154C3.58129 11.11 3.30305 11.7806 3.30225 12.4801C3.30271 12.9613 3.43467 13.4333 3.68387 13.8449C3.93307 14.2565 4.29003 14.5923 4.71618 14.8158C4.39171 14.3683 4.21697 13.8297 4.21694 13.277C4.21763 12.5774 4.49582 11.9067 4.99047 11.4119C5.48511 10.9172 6.15581 10.6389 6.85541 10.6381C7.12728 10.6381 7.38781 10.6831 7.63394 10.7603V7.55582C7.37602 7.51929 7.1159 7.50034 6.85541 7.49909C6.80958 7.49909 6.76464 7.50171 6.71925 7.50258V9.96387C6.46748 9.88373 6.20494 9.84252 5.94071 9.84168Z" fill="#FF004F"/>
<path fill-rule="evenodd" clip-rule="evenodd" d="M16.0844 5.06617V7.50564C14.4567 7.50564 12.9489 6.98502 11.7174 6.10131V12.4802C11.7174 15.6659 9.12607 18.2576 5.94035 18.2576C4.70927 18.2576 3.56765 17.8692 2.62939 17.2103C3.16883 17.792 3.8226 18.256 4.54973 18.5733C5.27687 18.8906 6.0617 19.0543 6.85505 19.0541C10.0408 19.0541 12.6325 16.4623 12.6325 13.277V6.89817C13.9048 7.813 15.4326 8.30431 16.9996 8.30251V5.16305C16.6854 5.16305 16.3799 5.12901 16.0844 5.06573" fill="#FF004F"/>
<path fill-rule="evenodd" clip-rule="evenodd" d="M11.7175 12.4801V6.1013C12.9897 7.01624 14.5176 7.50756 16.0846 7.50564V5.06617C15.1607 4.8669 14.3263 4.37337 13.7066 3.65965C13.2104 3.33686 12.7848 2.91671 12.4556 2.42463C12.1265 1.93255 11.9006 1.37879 11.7917 0.796875H9.49364L9.48884 13.3761C9.43604 14.7848 8.27653 15.9155 6.85517 15.9155C6.43699 15.915 6.0249 15.8151 5.653 15.6239C5.28109 15.4326 4.96004 15.1556 4.71638 14.8158C4.29016 14.5923 3.93311 14.2566 3.68383 13.845C3.43455 13.4333 3.30252 12.9614 3.30201 12.4801C3.30282 11.7806 3.58106 11.11 4.0757 10.6154C4.57033 10.1207 5.24097 9.84249 5.94048 9.84168C6.21192 9.84168 6.47245 9.88619 6.71902 9.96387V7.50258C3.59615 7.5759 1.07812 10.1367 1.07812 13.277C1.07812 14.7957 1.66814 16.1782 2.62952 17.2107C3.5987 17.893 4.75524 18.2587 5.94048 18.2576C9.1262 18.2576 11.7175 15.6659 11.7175 12.4801Z" fill="white"/>
</svg>
