<svg width="11" height="10" viewBox="0 0 11 10" fill="none" xmlns="http://www.w3.org/2000/svg">
<g clip-path="url(#clip0_344_7559)">
<path d="M7.16625 6.25C7.10375 6.25 7.04 6.23583 6.98042 6.20625L5.31375 5.37292C5.1725 5.30208 5.08333 5.15792 5.08333 5V2.08333C5.08333 1.85333 5.27 1.66667 5.5 1.66667C5.73 1.66667 5.91667 1.85333 5.91667 2.08333V4.7425L7.35292 5.46083C7.55875 5.56375 7.64208 5.81417 7.53917 6.02C7.46625 6.16583 7.31917 6.25 7.16625 6.25ZM5.5 10C2.74292 10 0.5 7.75708 0.5 5C0.5 2.24292 2.74292 0 5.5 0C8.25708 0 10.5 2.24292 10.5 5C10.5 7.75708 8.25708 10 5.5 10ZM5.5 0.833333C3.2025 0.833333 1.33333 2.7025 1.33333 5C1.33333 7.2975 3.2025 9.16667 5.5 9.16667C7.7975 9.16667 9.66667 7.2975 9.66667 5C9.66667 2.7025 7.7975 0.833333 5.5 0.833333Z" fill="#929292"/>
</g>
<defs>
<clipPath id="clip0_344_7559">
<rect width="10" height="10" fill="white" transform="translate(0.5)"/>
</clipPath>
</defs>
</svg>
