<svg width="20" height="20" viewBox="0 0 20 20" fill="none" xmlns="http://www.w3.org/2000/svg">
<path fill-rule="evenodd" clip-rule="evenodd" d="M12.5 3.75V5H7.5V3.75C7.5 3.40482 7.77983 3.125 8.125 3.125H11.875C12.2202 3.125 12.5 3.40482 12.5 3.75ZM6.25 5H5.625H4.375H2.5V6.25H4.375V15C4.375 16.3807 5.49429 17.5 6.875 17.5H13.125C14.5057 17.5 15.625 16.3807 15.625 15V6.25H17.5V5H15.625H14.375H13.75V3.75C13.75 2.71446 12.9105 1.875 11.875 1.875H8.125C7.08946 1.875 6.25 2.71446 6.25 3.75V5ZM14.375 6.25H5.625V15C5.625 15.6904 6.18465 16.25 6.875 16.25H13.125C13.8154 16.25 14.375 15.6904 14.375 15V6.25ZM7.5 15V7.5H8.75V15H7.5ZM11.25 7.5V15H12.5V7.5H11.25Z" fill="#1861F2"/>
</svg>
