<svg width="14" height="14" viewBox="0 0 14 14" fill="none" xmlns="http://www.w3.org/2000/svg">
<path fill-rule="evenodd" clip-rule="evenodd" d="M7.00036 3.17676C5.87878 3.17676 4.96599 4.09393 4.96599 5.21551C4.96599 5.8996 5.30332 6.50387 5.82349 6.87362C5.5156 6.97277 5.22607 7.11122 4.95724 7.28051C4.73118 6.99865 4.44145 6.77108 4.10849 6.61988C4.44504 6.34327 4.65974 5.92288 4.65974 5.45613C4.65974 4.62735 3.98353 3.95113 3.15474 3.95113C2.32703 3.95113 1.64974 4.62735 1.64974 5.45613C1.64974 5.92298 1.86459 6.34327 2.20099 6.61988C1.40124 6.98388 0.84036 7.78998 0.84036 8.72426C0.839835 8.76136 0.84669 8.7982 0.860526 8.83263C0.874362 8.86706 0.894903 8.8984 0.920955 8.92482C0.947008 8.95125 0.978052 8.97223 1.01228 8.98655C1.04652 9.00087 1.08325 9.00825 1.12036 9.00825C1.15747 9.00825 1.1942 9.00087 1.22844 8.98655C1.26267 8.97223 1.29371 8.95125 1.31976 8.92482C1.34582 8.8984 1.36636 8.86706 1.38019 8.83263C1.39403 8.7982 1.40088 8.76136 1.40036 8.72426C1.40036 7.75274 2.18458 6.97426 3.15474 6.97426C3.70112 6.97426 4.18593 7.22314 4.50662 7.61301C3.67935 8.31959 3.15474 9.36981 3.15474 10.5399C3.15422 10.577 3.16107 10.6138 3.17491 10.6483C3.18874 10.6827 3.20928 10.714 3.23534 10.7404C3.26139 10.7669 3.29243 10.7878 3.32667 10.8022C3.3609 10.8165 3.39763 10.8239 3.43474 10.8239C3.47185 10.8239 3.50859 10.8165 3.54282 10.8022C3.57705 10.7878 3.60809 10.7669 3.63415 10.7404C3.6602 10.714 3.68074 10.6827 3.69458 10.6483C3.70841 10.6138 3.71527 10.577 3.71474 10.5399C3.71474 9.46218 4.22793 8.50566 5.02724 7.90612C5.04428 7.89758 5.0604 7.88732 5.07536 7.87551C5.61684 7.48347 6.27971 7.24987 7.00036 7.24987C7.71726 7.24987 8.38138 7.47903 8.92099 7.86676C8.93907 7.88557 8.95968 7.90177 8.98224 7.91487C9.77642 8.51479 10.2904 9.46609 10.2904 10.5399C10.2898 10.577 10.2967 10.6138 10.3105 10.6483C10.3244 10.6827 10.3449 10.714 10.371 10.7404C10.397 10.7669 10.4281 10.7878 10.4623 10.8022C10.4965 10.8165 10.5333 10.8239 10.5704 10.8239C10.6075 10.8239 10.6442 10.8165 10.6784 10.8022C10.7127 10.7878 10.7437 10.7669 10.7698 10.7404C10.7958 10.714 10.8164 10.6827 10.8302 10.6483C10.844 10.6138 10.8509 10.577 10.8504 10.5399C10.8504 9.36992 10.3256 8.3196 9.49849 7.61301C9.81919 7.22265 10.3042 6.97426 10.8504 6.97426C11.8221 6.97426 12.6004 7.7525 12.6004 8.72426C12.5998 8.76136 12.6067 8.7982 12.6205 8.83263C12.6344 8.86706 12.6549 8.8984 12.681 8.92482C12.707 8.95125 12.7381 8.97223 12.7723 8.98655C12.8065 9.00087 12.8433 9.00825 12.8804 9.00825C12.9175 9.00825 12.9542 9.00087 12.9884 8.98655C13.0227 8.97223 13.0537 8.95125 13.0798 8.92482C13.1058 8.8984 13.1264 8.86706 13.1402 8.83263C13.154 8.7982 13.1609 8.76136 13.1604 8.72426C13.1604 7.79121 12.6025 6.98452 11.8041 6.61988C12.1395 6.34344 12.3554 5.9269 12.3554 5.46051C12.3554 4.63281 11.6791 3.95551 10.8504 3.95551C10.0227 3.95551 9.34536 4.63281 9.34536 5.46051C9.34536 5.92658 9.55752 6.34344 9.89224 6.61988C9.5603 6.77105 9.27344 6.99904 9.04786 7.28051C8.77891 7.11112 8.48537 6.9728 8.17724 6.87362C8.69733 6.50386 9.03912 5.89953 9.03912 5.21551C9.03912 4.09393 8.12196 3.17676 7.00036 3.17676ZM7.00036 3.73676C7.81919 3.73676 8.47912 4.39669 8.47912 5.21551C8.47912 6.03433 7.81919 6.68987 7.00036 6.68987C6.18154 6.68987 5.52599 6.03433 5.52599 5.21551C5.52599 4.39669 6.18154 3.73676 7.00036 3.73676Z" fill="#929292"/>
</svg>
