<svg width="53" height="53" viewBox="0 0 53 53" fill="none" xmlns="http://www.w3.org/2000/svg">
<path fill-rule="evenodd" clip-rule="evenodd" d="M26.5 0C41.1371 0 53 11.8629 53 26.5C53 41.1371 41.1371 53 26.5 53C11.8629 53 0 41.1371 0 26.5C0 11.8629 11.8629 0 26.5 0Z" fill="url(#paint0_radial_344_7836)"/>
<path d="M16.8423 20.4652C22.1733 15.2583 30.8272 15.2583 36.1583 20.4652L36.8001 21.0966C37.0692 21.3554 37.0692 21.7798 36.8001 22.0386L34.6056 24.1814C34.471 24.316 34.2536 24.316 34.119 24.1814L33.2392 23.3222C29.5126 19.6888 23.488 19.6888 19.7614 23.3222L18.8194 24.2435C18.6849 24.3781 18.4675 24.3781 18.3329 24.2435L16.1384 22.1007C15.8692 21.8419 15.8692 21.4175 16.1384 21.1587L16.8423 20.4652ZM40.7026 24.8957L42.6591 26.8003C42.9282 27.0591 42.9282 27.4835 42.6591 27.7423L33.8499 36.3445C33.5808 36.6033 33.146 36.6033 32.8872 36.3445L26.6349 30.2371C26.5728 30.175 26.4589 30.175 26.3968 30.2371L20.1444 36.3445C19.8753 36.6033 19.4405 36.6033 19.1817 36.3445L10.3415 27.7423C10.0724 27.4835 10.0724 27.0591 10.3415 26.8003L12.2979 24.8957C12.5671 24.6369 13.0019 24.6369 13.2606 24.8957L19.513 31.0031C19.5751 31.0652 19.689 31.0652 19.7511 31.0031L26.0034 24.8957C26.2726 24.6369 26.7073 24.6369 26.9661 24.8957L33.2185 31.0031C33.2806 31.0652 33.3944 31.0652 33.4565 31.0031L39.7089 24.8957C39.9987 24.6369 40.4335 24.6369 40.7026 24.8957Z" fill="white"/>
<defs>
<radialGradient id="paint0_radial_344_7836" cx="0" cy="0" r="1" gradientUnits="userSpaceOnUse" gradientTransform="translate(0.00016427 26.5008) scale(53)">
<stop stop-color="#5D9DF6"/>
<stop offset="1" stop-color="#006FFF"/>
</radialGradient>
</defs>
</svg>
