<svg width="23" height="23" viewBox="0 0 23 23" fill="none" xmlns="http://www.w3.org/2000/svg">
<path d="M11.5 2.15625C6.3481 2.15625 2.15624 6.34811 2.15625 11.5C2.15625 16.6519 6.3481 20.8437 11.5 20.8437C11.5952 20.8451 11.6898 20.8275 11.7782 20.792C11.8666 20.7565 11.947 20.7037 12.0148 20.6369C12.0827 20.57 12.1365 20.4903 12.1733 20.4024C12.2101 20.3146 12.229 20.2202 12.229 20.125C12.229 20.0297 12.2101 19.9354 12.1733 19.8476C12.1365 19.7597 12.0827 19.68 12.0148 19.6131C11.947 19.5463 11.8666 19.4935 11.7782 19.458C11.6898 19.4225 11.5952 19.4049 11.5 19.4062C7.12498 19.4062 3.59375 15.875 3.59375 11.5C3.59374 7.12499 7.12498 3.59375 11.5 3.59375C15.875 3.59375 19.4062 7.12499 19.4062 11.5V13.6562C19.4062 14.4651 18.7776 15.0937 17.9688 15.0937C17.1599 15.0937 16.5313 14.4651 16.5313 13.6562V11.5C16.5313 8.72983 14.2702 6.46875 11.5 6.46875C8.72983 6.46875 6.46874 8.72983 6.46875 11.5C6.46875 14.2702 8.72983 16.5312 11.5 16.5312C13.0255 16.5312 14.3928 15.8426 15.317 14.7639C15.7532 15.799 16.7804 16.5312 17.9688 16.5312C19.5491 16.5312 20.8437 15.2366 20.8437 13.6562V11.5C20.8437 6.34811 16.6519 2.15625 11.5 2.15625ZM11.5 7.90625C13.4933 7.90625 15.0938 9.50671 15.0938 11.5C15.0938 13.4933 13.4933 15.0937 11.5 15.0937C9.50671 15.0937 7.90625 13.4933 7.90625 11.5C7.90625 9.50671 9.50671 7.90625 11.5 7.90625Z" fill="black"/>
</svg>
