<svg width="20" height="20" viewBox="0 0 20 20" fill="none" xmlns="http://www.w3.org/2000/svg">
<path d="M9.9998 0.800049C4.927 0.800049 0.799805 4.92685 0.799805 10C0.799805 15.0732 4.927 19.2 9.9998 19.2C15.0726 19.2 19.1998 15.0732 19.1998 10C19.1998 4.92685 15.0726 0.800049 9.9998 0.800049ZM7.1998 14H5.5998V8.00005H7.1998V14ZM6.3998 6.80005C5.9578 6.80005 5.5998 6.44205 5.5998 6.00005C5.5998 5.55805 5.9578 5.20005 6.3998 5.20005C6.8418 5.20005 7.1998 5.55805 7.1998 6.00005C7.1998 6.44205 6.8418 6.80005 6.3998 6.80005ZM14.7998 14H13.1998V12V11C13.1998 10.23 12.5698 9.60005 11.7998 9.60005C11.0298 9.60005 10.3998 10.23 10.3998 11V14H8.7998V8.00005H10.3998V8.72645C10.867 8.27765 11.5006 8.00005 12.1998 8.00005C13.6358 8.00005 14.7998 9.16405 14.7998 10.6V14Z" fill="black"/>
</svg>
