<svg width="20" height="19" viewBox="0 0 20 19" fill="none" xmlns="http://www.w3.org/2000/svg">
<g clip-path="url(#clip0_344_7554)">
<path d="M11.6861 1.2666C10.3579 1.2666 9.36672 2.35159 9.36672 3.58594V5.7222C7.62487 5.81463 6.0319 6.27903 4.76021 7.00742C4.27015 6.53682 3.61396 6.32785 2.97773 6.32832C2.28791 6.32883 1.58271 6.56786 1.09628 7.11504L1.08515 7.12741L1.07401 7.13978C0.607393 7.72295 0.422627 8.50417 0.547061 9.27975C0.660701 9.98805 1.07092 10.6991 1.78404 11.1649C1.77937 11.2435 1.76672 11.3205 1.76672 11.3999C1.76672 14.5425 5.46032 17.0999 10.0001 17.0999C14.5398 17.0999 18.2334 14.5425 18.2334 11.3999C18.2334 11.3205 18.2207 11.2435 18.2161 11.1649C18.9292 10.6991 19.3394 9.98805 19.4531 9.27975C19.5775 8.50417 19.3927 7.72295 18.9261 7.13978L18.915 7.12741L18.9038 7.11504C18.4173 6.56779 17.7123 6.32883 17.0224 6.32832C16.3861 6.32785 15.7298 6.53665 15.2399 7.00742C13.9682 6.27903 12.3752 5.81463 10.6334 5.7222V3.58594C10.6334 2.96589 10.9914 2.53327 11.6861 2.53327C12.0158 2.53327 12.4176 2.69851 13.0467 2.91921C13.5786 3.10577 14.2708 3.29434 15.1558 3.35091C15.3675 3.97669 15.9552 4.43327 16.6501 4.43327C17.5209 4.43327 18.2334 3.72077 18.2334 2.84993C18.2334 1.9791 17.5209 1.2666 16.6501 1.2666C16.0555 1.2666 15.5402 1.60253 15.2696 2.09043C14.5131 2.04853 13.9573 1.89658 13.4661 1.72428C12.8937 1.5235 12.3677 1.2666 11.6861 1.2666ZM2.97773 7.59499C3.22798 7.5948 3.46575 7.66048 3.66177 7.76693C2.96258 8.35054 2.43208 9.03242 2.11184 9.77702C1.9418 9.56712 1.83933 9.33147 1.79888 9.07936C1.73063 8.65396 1.85794 8.21176 2.05989 7.95C2.25073 7.74459 2.59921 7.59526 2.97773 7.59499ZM17.0211 7.59499C17.3998 7.59527 17.7494 7.74465 17.9402 7.95C18.1422 8.21176 18.2695 8.65396 18.2012 9.07936C18.1608 9.33147 18.0583 9.56712 17.8883 9.77702C17.568 9.03242 17.0375 8.35054 16.3383 7.76693C16.5339 7.6606 16.771 7.5948 17.0211 7.59499ZM6.83339 8.8666C7.53322 8.8666 8.10006 9.43343 8.10006 10.1333C8.10006 10.8331 7.53322 11.3999 6.83339 11.3999C6.13356 11.3999 5.56672 10.8331 5.56672 10.1333C5.56672 9.43343 6.13356 8.8666 6.83339 8.8666ZM13.1667 8.8666C13.8666 8.8666 14.4334 9.43343 14.4334 10.1333C14.4334 10.8331 13.8666 11.3999 13.1667 11.3999C12.4669 11.3999 11.9001 10.8331 11.9001 10.1333C11.9001 9.43343 12.4669 8.8666 13.1667 8.8666ZM13.3176 12.371C12.9129 13.5534 11.6189 14.5666 10.0001 14.5666C8.38126 14.5666 7.08718 13.5539 6.68248 12.4563C7.41081 13.0472 8.62446 13.4694 10.0001 13.4694C11.3757 13.4694 12.5893 13.0467 13.3176 12.371Z" fill="black"/>
</g>
<defs>
<clipPath id="clip0_344_7554">
<rect width="19" height="19" fill="white" transform="translate(0.5)"/>
</clipPath>
</defs>
</svg>
