<svg width="20" height="20" viewBox="0 0 20 20" fill="none" xmlns="http://www.w3.org/2000/svg">
<path d="M9.9998 0.800049C4.9266 0.800049 0.799805 4.92685 0.799805 10C0.799805 15.0732 4.9266 19.2 9.9998 19.2C15.073 19.2 19.1998 15.0732 19.1998 10C19.1998 4.92685 15.073 0.800049 9.9998 0.800049ZM14.4946 8.20965C14.4986 8.30405 14.501 8.40005 14.501 8.49645C14.501 11.4236 12.2718 14.8 8.1962 14.8C6.945 14.8 5.7798 14.4332 4.7998 13.8045C4.973 13.8252 5.1486 13.8352 5.3282 13.8352C6.3666 13.8352 7.32221 13.4816 8.0798 12.8872C7.11021 12.8696 6.2926 12.2276 6.0098 11.3484C6.1454 11.3744 6.2842 11.3884 6.4274 11.3884C6.62941 11.3884 6.82541 11.3616 7.0106 11.3104C5.99781 11.106 5.2342 10.2116 5.2342 9.13765C5.2342 9.12805 5.2342 9.11885 5.2342 9.10965C5.533 9.27565 5.87421 9.37565 6.2378 9.38725C5.6426 8.98925 5.2522 8.31165 5.2522 7.54285C5.2522 7.13685 5.361 6.75645 5.55181 6.42845C6.645 7.76885 8.2778 8.65085 10.119 8.74365C10.081 8.58125 10.061 8.41245 10.061 8.23885C10.061 7.01525 11.053 6.02325 12.277 6.02325C12.9142 6.02325 13.4898 6.29205 13.8938 6.72285C14.3982 6.62365 14.873 6.43925 15.301 6.18565C15.1358 6.70245 14.7842 7.13685 14.3262 7.41125C14.775 7.35685 15.2014 7.23845 15.5994 7.06205C15.3026 7.50645 14.927 7.89725 14.4946 8.20965Z" fill="black"/>
</svg>
